<svg width="40" height="40" viewBox="0 0 40 40" fill="none" xmlns="http://www.w3.org/2000/svg">
<path d="M0 1.66663H16.6667L0 38.3333V1.66663Z" fill="white"/>
<path d="M22.5 38.3333H30L20 15L12.5 31.6667H20L22.5 38.3333Z" fill="white"/>
<path d="M23.3333 1.66663L40 38.3333V1.66663H23.3333Z" fill="white"/>
<path d="M0 1.66663H16.6667L0 38.3333V1.66663Z" fill="url(#paint0_linear_1_69)"/>
<path d="M22.5 38.3333H30L20 15L12.5 31.6667H20L22.5 38.3333Z" fill="url(#paint1_linear_1_69)"/>
<path d="M23.3333 1.66663L40 38.3333V1.66663H23.3333Z" fill="url(#paint2_linear_1_69)"/>
<path d="M0 1.66663V38.3333L16.6667 1.66663H0ZM12.5 31.6666H20L22.5 38.3333H30L20 15L12.5 31.6666ZM23.3333 1.66663L40 38.3333V1.66663H23.3333Z" fill="url(#paint3_linear_1_69)"/>
<defs>
<linearGradient id="paint0_linear_1_69" x1="-5.53369" y1="13.5337" x2="8.51046" y2="20.0826" gradientUnits="userSpaceOnUse">
<stop stop-color="white" stop-opacity="0.1"/>
<stop offset="1" stop-color="white" stop-opacity="0"/>
</linearGradient>
<linearGradient id="paint1_linear_1_69" x1="13.9583" y1="21.0417" x2="30.625" y2="37.7083" gradientUnits="userSpaceOnUse">
<stop stop-opacity="0"/>
<stop offset="1" stop-opacity="0.1"/>
</linearGradient>
<linearGradient id="paint2_linear_1_69" x1="22.5" y1="2.49996" x2="49.1667" y2="29.1666" gradientUnits="userSpaceOnUse">
<stop stop-opacity="0"/>
<stop offset="1" stop-opacity="0.1"/>
</linearGradient>
<linearGradient id="paint3_linear_1_69" x1="-3.44995" y1="9.06507" x2="43.4499" y2="30.9348" gradientUnits="userSpaceOnUse">
<stop stop-color="white" stop-opacity="0.1"/>
<stop offset="1" stop-color="white" stop-opacity="0"/>
</linearGradient>
</defs>
</svg>
