<svg width="40" height="40" viewBox="0 0 40 40" fill="none" xmlns="http://www.w3.org/2000/svg">
<path opacity="0.3" d="M18.8775 29.1281H13.0447V30.5178H18.8775V29.1281Z" fill="white"/>
<path d="M25.4811 29.1636H4.35641C2.51669 29.1636 1.01141 27.6583 1.01141 25.8186V9.4797C1.01141 7.63998 2.51669 6.1347 4.35641 6.1347H27.6261C29.4659 6.1347 30.9711 7.63998 30.9711 9.4797V15.7397" stroke="white" stroke-miterlimit="10" stroke-linecap="round" stroke-linejoin="round"/>
<path d="M25.4811 24.3722H4.37837C3.39003 24.3722 2.58142 23.5636 2.58142 22.5752V9.57414C2.58142 8.58581 3.39003 7.77692 4.37864 7.77692H27.6045C28.5928 7.77692 29.4014 8.58553 29.4014 9.57386V15.5947" stroke="white" stroke-miterlimit="10" stroke-linecap="round" stroke-linejoin="round"/>
<path opacity="0.3" d="M2.58112 10.1441V9.57414C2.58112 8.58581 3.38973 7.77692 4.37834 7.77692H27.6042C28.5925 7.77692 29.4011 8.58553 29.4011 9.57386V10.1441H2.58112Z" fill="white"/>
<path d="M2.58112 10.1441V9.57414C2.58112 8.58581 3.38973 7.77692 4.37834 7.77692H27.6042C28.5925 7.77692 29.4011 8.58553 29.4011 9.57386V10.1441H2.58112Z" stroke="white" stroke-miterlimit="10" stroke-linecap="round" stroke-linejoin="round"/>
<path opacity="0.3" d="M15.9914 27.8383C16.5445 27.8383 16.9928 27.3899 16.9928 26.8369C16.9928 26.2838 16.5445 25.8355 15.9914 25.8355C15.4384 25.8355 14.9901 26.2838 14.9901 26.8369C14.9901 27.3899 15.4384 27.8383 15.9914 27.8383Z" fill="white"/>
<path d="M15.9914 27.8383C16.5445 27.8383 16.9928 27.3899 16.9928 26.8369C16.9928 26.2838 16.5445 25.8355 15.9914 25.8355C15.4384 25.8355 14.9901 26.2838 14.9901 26.8369C14.9901 27.3899 15.4384 27.8383 15.9914 27.8383Z" stroke="white" stroke-miterlimit="10" stroke-linecap="round" stroke-linejoin="round"/>
<path d="M18.9198 29.2352C18.9198 29.2352 18.3909 32.6541 20.9942 32.6541C17.8217 32.6541 15.7878 32.6541 15.7878 32.6541H16.1131C16.1131 32.6541 14.1609 32.6541 10.9881 32.6541C13.5912 32.6541 13.0217 29.2708 13.0217 29.2708" stroke="white" stroke-miterlimit="10" stroke-linecap="round" stroke-linejoin="round"/>
<path d="M14.5814 11.9241H4.59393V15.6558H14.5814V11.9241Z" stroke="white" stroke-miterlimit="10" stroke-linecap="round" stroke-linejoin="round"/>
<path d="M16.2111 12.3763H24.5445" stroke="white" stroke-miterlimit="10" stroke-linecap="round" stroke-linejoin="round"/>
<path d="M16.2111 14.043H25.9333" stroke="white" stroke-miterlimit="10" stroke-linecap="round" stroke-linejoin="round"/>
<path d="M16.2111 15.1541H24.5445" stroke="white" stroke-miterlimit="10" stroke-linecap="round" stroke-linejoin="round"/>
<path opacity="0.3" d="M9.58782 17.7139H4.59393V22.7078H9.58782V17.7139Z" fill="white"/>
<path d="M9.58782 17.7139H4.59393V22.7078H9.58782V17.7139Z" stroke="white" stroke-miterlimit="10" stroke-linecap="round" stroke-linejoin="round"/>
<path d="M16.3925 17.7139H11.3986V22.7078H16.3925V17.7139Z" stroke="white" stroke-miterlimit="10" stroke-linecap="round" stroke-linejoin="round"/>
<path d="M23.1973 17.7139H18.2034V22.7078H23.1973V17.7139Z" stroke="white" stroke-miterlimit="10" stroke-linecap="round" stroke-linejoin="round"/>
<path d="M37.4242 34.6888H26.8322C26.0956 34.6888 25.4928 34.0861 25.4928 33.3494V17.0777C25.4928 16.3411 26.0956 15.7383 26.8322 15.7383H37.4242C38.1609 15.7383 38.7636 16.3411 38.7636 17.0777V33.3494C38.7636 34.0861 38.1609 34.6888 37.4242 34.6888Z" stroke="white" stroke-miterlimit="10" stroke-linecap="round" stroke-linejoin="round"/>
<path d="M36.9728 31.64H27.2839C26.807 31.64 26.42 31.2533 26.42 30.7761V17.6833C26.42 17.2063 26.8067 16.8194 27.2839 16.8194H36.9728C37.4498 16.8194 37.8367 17.2061 37.8367 17.6833V30.7761C37.8364 31.2533 37.4498 31.64 36.9728 31.64Z" stroke="white" stroke-miterlimit="10" stroke-linecap="round" stroke-linejoin="round"/>
<path opacity="0.3" d="M32.6267 33.7367C32.9651 33.7367 33.2395 33.4623 33.2395 33.1239C33.2395 32.7855 32.9651 32.5111 32.6267 32.5111C32.2883 32.5111 32.0139 32.7855 32.0139 33.1239C32.0139 33.4623 32.2883 33.7367 32.6267 33.7367Z" fill="white"/>
<path d="M32.6267 33.7367C32.9651 33.7367 33.2395 33.4623 33.2395 33.1239C33.2395 32.7855 32.9651 32.5111 32.6267 32.5111C32.2883 32.5111 32.0139 32.7855 32.0139 33.1239C32.0139 33.4623 32.2883 33.7367 32.6267 33.7367Z" stroke="white" stroke-miterlimit="10" stroke-linecap="round" stroke-linejoin="round"/>
<path opacity="0.3" d="M36.5434 18.235H28.0445V25.3597H36.5434V18.235Z" fill="white"/>
<path d="M36.5434 18.235H27.8661V25.3597H36.5434V18.235Z" stroke="white" stroke-miterlimit="10" stroke-linecap="round" stroke-linejoin="round"/>
<path d="M28.1556 27.3763H34.8222" stroke="white" stroke-miterlimit="10" stroke-linecap="round" stroke-linejoin="round"/>
<path d="M28.1556 28.4875H33.7111" stroke="white" stroke-miterlimit="10" stroke-linecap="round" stroke-linejoin="round"/>
<path d="M34.8717 11.2527V12.9836" stroke="white" stroke-miterlimit="10" stroke-linecap="round" stroke-linejoin="round"/>
<path d="M35.7372 12.118H34.0064" stroke="white" stroke-miterlimit="10" stroke-linecap="round" stroke-linejoin="round"/>
<path d="M37.6841 5.10248V7.99359" stroke="white" stroke-miterlimit="10" stroke-linecap="round" stroke-linejoin="round"/>
<path d="M39.1297 6.54803H36.2389" stroke="white" stroke-miterlimit="10" stroke-linecap="round" stroke-linejoin="round"/>
</svg>
